<!-- Generated by IcoMoon.io -->
<svg version="1.1" xmlns="http://www.w3.org/2000/svg" width="32" height="32" viewBox="0 0 32 32">
<title>folder-open</title>
<path d="M1.6 29.6h24c0.64 0 1.219-0.381 1.47-0.97l4.8-11.2c0.213-0.494 0.161-1.061-0.134-1.51-0.298-0.45-0.798-0.72-1.336-0.72h-1.6v-6.4c0-1.765-1.435-3.2-3.2-3.2h-8.16l-3.654-2.859c-0.282-0.221-0.627-0.341-0.986-0.341h-9.6c-1.765 0-3.2 1.435-3.2 3.2v22.4h0.011c0 0.307 0.078 0.616 0.253 0.882 0.298 0.448 0.798 0.718 1.336 0.718zM4.027 26.4l3.429-8h20.518l-3.429 8h-20.518zM25.6 15.2h-19.2c-0.64 0-1.219 0.381-1.47 0.97l-1.73 4.037v-11.406h22.4v6.4z"></path>
</svg>
