<!-- Generated by IcoMoon.io -->
<svg version="1.1" xmlns="http://www.w3.org/2000/svg" width="32" height="32" viewBox="0 0 32 32">
<title>shopping-bag</title>
<path d="M16 2.909c-2.008 0-3.636 1.628-3.636 3.636v0.727h7.273v-0.727c0-2.008-1.628-3.636-3.636-3.636zM22.545 7.273v-0.727c0-3.615-2.931-6.545-6.545-6.545s-6.545 2.93-6.545 6.545v0.727h-3.636c-1.607 0-2.909 1.302-2.909 2.909v18.909c0 1.607 1.302 2.909 2.909 2.909h20.364c1.607 0 2.909-1.302 2.909-2.909v-18.909c0-1.607-1.302-2.909-2.909-2.909h-3.636zM19.636 10.182v1.455c0 0.803 0.651 1.455 1.455 1.455s1.455-0.651 1.455-1.455v-1.455h3.636v18.909h-20.364v-18.909h3.636v1.455c0 0.803 0.651 1.455 1.455 1.455s1.455-0.651 1.455-1.455v-1.455h7.273z"></path>
</svg>
