<!-- Generated by IcoMoon.io -->
<svg version="1.1" xmlns="http://www.w3.org/2000/svg" width="32" height="32" viewBox="0 0 32 32">
<title>file-blank</title>
<path d="M28.646 10.538c-0.078-0.17-0.176-0.331-0.314-0.469l-9.6-9.6c-0.138-0.138-0.299-0.235-0.469-0.314-0.048-0.022-0.099-0.035-0.15-0.053-0.134-0.045-0.272-0.074-0.414-0.082-0.035-0.003-0.066-0.021-0.099-0.021h-11.2c-1.765 0-3.2 1.435-3.2 3.2v25.6c0 1.765 1.435 3.2 3.2 3.2h19.2c1.765 0 3.2-1.435 3.2-3.2v-17.6c0-0.034-0.017-0.064-0.021-0.099-0.008-0.141-0.035-0.278-0.080-0.413-0.017-0.051-0.032-0.101-0.053-0.15zM19.2 9.6v-4.138l4.138 4.138h-4.138zM6.4 3.2h9.6v8c0 0.885 0.715 1.6 1.6 1.6h8l0.003 16h-19.203v-25.6z"></path>
</svg>
