<!-- Generated by IcoMoon.io -->
<svg version="1.1" xmlns="http://www.w3.org/2000/svg" width="32" height="32" viewBox="0 0 32 32">
<title>id-card</title>
<path d="M15.544 12.8c0-1.842-1.358-3.2-3.2-3.2s-3.2 1.358-3.2 3.2c0 1.842 1.357 3.2 3.2 3.2 1.842 0 3.2-1.358 3.2-3.2zM19.2 11.2v3.2h6.4v-3.2h-6.4zM20.8 17.6v3.2h4.8v-3.2h-4.8zM18.288 22.4h-11.888c0-2.198 2.682-5.2 5.944-5.2s5.944 3.002 5.944 5.2zM28.8 3.2h-25.6c-1.765 0-3.2 1.346-3.2 3v19.6c0 1.654 1.435 3 3.2 3h25.6c1.765 0 3.2-1.346 3.2-3v-19.6c0-1.654-1.435-3-3.2-3v0zM28.8 25.6l-25.6-0.018v-19.182l25.6 0.018v19.182z"></path>
</svg>
