<!-- Generated by IcoMoon.io -->
<svg version="1.1" xmlns="http://www.w3.org/2000/svg" width="32" height="32" viewBox="0 0 32 32">
<title>love-off</title>
<path d="M16 4.8c-0.543-0.626 0 0 0 0 0.543-0.626 1.177-1.172 1.876-1.628 1.544-1.007 3.408-1.572 5.325-1.572 4.928 0 8.8 3.798 8.8 8.632 0 1.718-0.409 3.349-1.11 4.901-2.174 4.817-7.155 8.882-11.443 12.381-1.234 1.008-2.411 1.968-3.447 2.886-1.036-0.918-2.213-1.878-3.447-2.886-4.288-3.499-9.269-7.564-11.443-12.381-0.701-1.552-1.11-3.183-1.11-4.9 0-4.834 3.872-8.632 8.8-8.632 1.917 0 3.78 0.565 5.325 1.572 0.699 0.456 1.332 1.002 1.876 1.628zM16 26.192c0.516-0.428 1.044-0.86 1.571-1.291 0.447-0.365 0.892-0.73 1.33-1.091 1.753-1.447 3.468-2.917 4.988-4.458 1.88-1.907 3.277-3.742 4.091-5.553 0.537-1.196 0.82-2.381 0.82-3.566 0-3.009-2.381-5.432-5.6-5.432-1.901 0-3.676 0.822-4.784 2.098l-2.416 2.784-2.416-2.784c-1.108-1.276-2.882-2.098-4.784-2.098-3.219 0-5.6 2.423-5.6 5.432 0 1.186 0.283 2.37 0.819 3.566 0.814 1.811 2.211 3.647 4.091 5.553 1.519 1.541 3.235 3.011 4.988 4.458 0.438 0.361 0.884 0.726 1.33 1.091 0.527 0.431 1.055 0.863 1.571 1.291 0 0 0.517-0.428 0 0z"></path>
</svg>
