<!-- Generated by IcoMoon.io -->
<svg version="1.1" xmlns="http://www.w3.org/2000/svg" width="32" height="32" viewBox="0 0 32 32">
<title>phone-call</title>
<path d="M8.622 2.713c1.15 0 2.209 0.623 2.767 1.629l1.936 3.487c0.507 0.913 0.531 2.018 0.064 2.952l-1.598 3.195 0.025 0.077 0.15 0.424c0.301 0.795 0.72 1.592 1.271 2.329 0.243 0.325 0.507 0.632 0.793 0.918 0.283 0.282 0.585 0.543 0.905 0.783 0.738 0.553 1.534 0.972 2.33 1.273 0.155 0.059 0.297 0.108 0.424 0.149l0.077 0.024 3.198-1.598c0.841-0.421 1.821-0.443 2.674-0.073l0.279 0.138 3.497 1.944c1.005 0.558 1.627 1.617 1.627 2.766v4.014c0 3.126-2.959 5.367-5.924 4.367-5.927-2-11.177-4.689-14.681-8.193s-6.193-8.754-8.193-14.681c-1.001-2.965 1.241-5.924 4.367-5.924h4.014zM8.622 5.878h-4.014c-1.001 0-1.663 0.874-1.368 1.747 1.857 5.504 4.352 10.375 7.432 13.455s7.951 5.575 13.455 7.432c0.874 0.295 1.747-0.367 1.747-1.368v-4.014l-3.497-1.944-3.729 1.864c-0.311 0.156-0.664 0.204-1.006 0.139-1.205-0.231-2.903-0.872-4.607-2.15-0.438-0.328-0.854-0.687-1.245-1.078-0.396-0.395-0.758-0.817-1.090-1.261-1.271-1.701-1.913-3.394-2.146-4.596-0.067-0.343-0.018-0.698 0.138-1.010l1.865-3.73-1.936-3.487zM23.028 0.606c2.065 0.518 3.959 1.582 5.496 3.119s2.601 3.431 3.119 5.496c0.381 1.521 0.458 3.104 0.227 4.655-0.129 0.864-0.934 1.461-1.799 1.332s-1.461-0.934-1.332-1.798c0.17-1.139 0.113-2.302-0.166-3.418-0.379-1.513-1.158-2.898-2.287-4.028s-2.515-1.908-4.028-2.287c-1.116-0.28-2.28-0.336-3.418-0.167-0.864 0.129-1.67-0.467-1.798-1.332s0.467-1.67 1.332-1.798c1.55-0.231 3.134-0.154 4.655 0.227zM24.080 7.826c1.436 1.436 2.078 3.443 1.785 5.413-0.129 0.864-0.934 1.461-1.798 1.332-0.803-0.12-1.374-0.823-1.349-1.614l0.017-0.184c0.147-0.988-0.173-1.989-0.892-2.708-0.647-0.647-1.523-0.971-2.412-0.922l-0.297 0.030c-0.864 0.129-1.67-0.467-1.798-1.332s0.467-1.67 1.332-1.798c1.97-0.294 3.977 0.348 5.413 1.785z"></path>
</svg>
