<!-- Generated by IcoMoon.io -->
<svg version="1.1" xmlns="http://www.w3.org/2000/svg" width="32" height="32" viewBox="0 0 32 32">
<title>user</title>
<path d="M11.216 19.588c0.531-0.386 1.263-0.328 1.727 0.135l3.057 3.057 3.057-3.057c0.464-0.464 1.196-0.521 1.727-0.135l7.333 5.333c0.271 0.197 0.458 0.489 0.523 0.817l0.667 3.333c0.144 0.722-0.324 1.425-1.046 1.569s-1.425-0.324-1.569-1.046l-0.565-2.823-5.991-4.357-3.194 3.194c-0.521 0.521-1.365 0.521-1.886 0l-3.194-3.194-5.991 4.357-0.565 2.823c-0.144 0.722-0.847 1.19-1.569 1.046s-1.19-0.847-1.046-1.569l0.667-3.333c0.066-0.328 0.252-0.62 0.523-0.817l7.333-5.333z"></path>
<path d="M6.667 10.667c0-5.155 4.179-9.333 9.333-9.333s9.333 4.179 9.333 9.333c0 2.577-1.046 4.912-2.734 6.6-0.521 0.521-1.365 0.521-1.886 0s-0.521-1.365 0-1.886c0.364-0.364 0.686-0.77 0.959-1.209 0.053-0.381-0.093-0.733-0.498-1.158-0.403-0.422-0.893-0.742-1.379-1.059-0.121-0.079-0.242-0.158-0.361-0.238-0.049-0.033-0.23-0.118-0.63-0.22-0.373-0.095-0.816-0.176-1.314-0.261-0.477-0.082-1.014-0.169-1.495-0.272-0.464-0.099-0.994-0.234-1.434-0.449-0.996-0.488-1.556-1.497-1.856-2.037-0.051-0.092-0.097-0.175-0.138-0.25-0.096-0.175-0.189-0.352-0.301-0.517-0.071-0.020-0.097-0.011-0.122-0.002l-0.005 0.002c-0.1 0.034-0.46 0.212-1.049 1.053-0.611 0.874-1.037 2.406-1.088 4.823 0.326 0.667 0.76 1.273 1.281 1.794s0.521 1.365 0 1.886-1.365 0.521-1.886 0c-0.817-0.817-1.484-1.786-1.954-2.861-0.502-1.146-0.779-2.412-0.779-3.739zM22.666 10.755c0.048-3.667-2.998-6.756-6.666-6.756-1.317 0-2.546 0.382-3.58 1.042 0.422 0.034 0.779 0.158 1.048 0.276zM22.666 10.755c-0.546-0.477-1.134-0.856-1.511-1.1-0.531-0.343-1.077-0.586-1.694-0.743-0.487-0.124-1.026-0.22-1.519-0.305-0.514-0.088-0.977-0.164-1.391-0.252-0.43-0.091-0.688-0.173-0.815-0.236-0.383-0.188-0.593-0.744-0.789-1.103-0.124-0.226-0.274-0.501-0.421-0.726-0.163-0.25-0.498-0.732-1.058-0.975z"></path>
</svg>
